<svg version="1.1" xmlns="http://www.w3.org/2000/svg" xmlns:xlink="http://www.w3.org/1999/xlink" width="64.000000pt" height="64.000000pt" viewBox="0,0,256,256"><g fill="#a4a4a4" fill-rule="nonzero" stroke="none" stroke-width="1" stroke-linecap="butt" stroke-linejoin="miter" stroke-miterlimit="10" stroke-dasharray="" stroke-dashoffset="0" font-family="none" font-weight="none" font-size="none" text-anchor="none" style="mix-blend-mode: normal"><g transform="translate(-14,-0.83002) scale(4,4)"><g transform="translate(0,64) scale(0.1,-0.1)"><path d="M263,595c-39,-17 -63,-52 -70,-105c-5,-36 -8,-40 -34,-40c-55,0 -59,-14 -59,-210c0,-149 3,-181 16,-194c23,-24 385,-24 408,0c13,12 16,41 16,149c0,121 2,135 19,144c22,12 51,70 51,101c0,37 -31,90 -62,106c-17,9 -49,14 -73,13c-30,-2 -50,2 -62,13c-41,38 -97,46 -150,23zM378,570l33,-20l-19,-28c-11,-15 -23,-37 -26,-49c-7,-21 -13,-23 -82,-23c-73,0 -74,0 -74,25c0,59 53,114 110,115c14,0 40,-9 58,-20zM553,520c48,-38 44,-130 -7,-165c-27,-20 -91,-19 -120,0c-54,35 -58,126 -9,165c17,13 41,20 68,20c27,0 51,-7 68,-20zM190,375c0,-30 5,-55 10,-55c6,0 10,25 10,55v55h75c71,0 75,-1 81,-25c10,-42 69,-85 115,-85h40l-3,-132l-3,-133h-195h-195l-3,175c-1,96 0,180 2,187c3,7 19,13 36,13c30,0 30,0 30,-55z"></path><path d="M480,475c0,-20 -5,-25 -25,-25c-14,0 -25,-4 -25,-10c0,-5 11,-10 25,-10c20,0 25,-5 25,-25c0,-14 5,-25 10,-25c6,0 10,11 10,25c0,20 5,25 25,25c14,0 25,5 25,10c0,6 -11,10 -25,10c-20,0 -25,5 -25,25c0,14 -4,25 -10,25c-5,0 -10,-11 -10,-25z"></path><path d="M245,90c3,-5 37,-10 75,-10c38,0 72,5 75,10c4,6 -23,10 -75,10c-52,0 -79,-4 -75,-10z"></path></g></g></g></svg>