<svg version="1.1" xmlns="http://www.w3.org/2000/svg" xmlns:xlink="http://www.w3.org/1999/xlink" width="64.000000pt" height="64.000000pt" viewBox="0,0,256,256"><g fill="#a7a7a7" fill-rule="nonzero" stroke="none" stroke-width="1" stroke-linecap="butt" stroke-linejoin="miter" stroke-miterlimit="10" stroke-dasharray="" stroke-dashoffset="0" font-family="none" font-weight="none" font-size="none" text-anchor="none" style="mix-blend-mode: normal"><g transform="translate(0.61099,-1.40056) scale(4,4)"><g transform="translate(0,64) scale(0.1,-0.1)"><path d="M139,571c-21,-6 -29,-22 -29,-59c0,-41 23,-39 28,1c3,20 9,27 25,27c27,0 438,-58 443,-62c1,-2 -6,-72 -18,-156c-18,-133 -23,-152 -39,-152c-17,0 -19,12 -21,133l-3,132l-254,3c-197,2 -256,-1 -263,-10c-11,-18 -10,-330 2,-348c8,-12 49,-16 244,-18c259,-3 276,0 276,48c0,25 4,30 24,30c13,0 28,6 34,13c5,6 20,83 32,170c20,140 21,161 8,174c-16,15 -462,83 -489,74zM500,385v-25h-235h-235v25v25h235h235zM500,215v-115h-235h-235v115v115h235h235z"></path><path d="M294,257c-3,-8 -4,-34 -2,-58l3,-44h75h75v55v55l-73,3c-55,2 -74,0 -78,-11zM420,210c0,-29 -2,-30 -45,-30c-47,0 -63,14 -51,45c4,10 20,15 51,15c43,0 45,-1 45,-30z"></path></g></g></g></svg>