<svg version="1.1" xmlns="http://www.w3.org/2000/svg" xmlns:xlink="http://www.w3.org/1999/xlink" width="256.000000pt" height="256.000000pt" viewBox="0,0,256,256"><g fill="#e7b3b3" fill-rule="nonzero" stroke="none" stroke-width="1" stroke-linecap="butt" stroke-linejoin="miter" stroke-miterlimit="10" stroke-dasharray="" stroke-dashoffset="0" font-family="none" font-weight="none" font-size="none" text-anchor="none" style="mix-blend-mode: normal"><g><g><g><g transform="translate(0,256) scale(0.1,-0.1)"><path d="M397,2210c-20,-16 -30,-39 -44,-100l-18,-79l-37,-6c-24,-4 -47,-17 -63,-37l-25,-30v-244v-244l-65,-292c-36,-161 -65,-308 -65,-328c0,-50 23,-77 78,-93l47,-14l5,-76c4,-67 9,-80 33,-104l27,-28l473,-5l472,-6l427,-97c235,-53 443,-97 461,-97c58,0 84,30 103,120l17,79l38,6c25,4 47,17 64,37l25,30v244v244l65,292c36,161 65,308 65,328c0,50 -23,77 -78,93l-47,14l-5,76c-4,67 -9,80 -33,104l-27,28l-468,5l-467,5l-432,98c-237,53 -447,97 -466,97c-19,0 -45,-9 -60,-20zM2278,1958c17,-17 17,-1339 0,-1356c-17,-17 -1979,-17 -1996,0c-17,17 -17,1339 0,1356c17,17 1979,17 1996,0z"></path><path d="M421,1766c-8,-9 -11,-60 -9,-157l3,-144h195h195l3,144c2,97 -1,148 -9,157c-9,11 -50,14 -189,14c-139,0 -180,-3 -189,-14z"></path><path d="M1603,1708l-103,-61v-132v-133l102,-58c57,-33 106,-61 111,-62c4,-2 57,24 117,59l110,62v132v132l-108,61c-59,34 -112,62 -117,61c-6,0 -56,-28 -112,-61z"></path><path d="M422,1321c-8,-5 -12,-17 -10,-27c3,-18 18,-19 303,-19c285,0 300,1 303,19c2,10 -2,22 -10,27c-7,5 -139,9 -293,9c-154,0 -286,-4 -293,-9z"></path><path d="M420,1165c-7,-8 -10,-22 -6,-30c5,-13 52,-15 378,-13c356,3 373,4 376,22c2,10 -2,22 -10,27c-7,5 -173,9 -369,9c-304,0 -358,-2 -369,-15z"></path><path d="M423,973c-17,-6 -18,-174 -1,-191c8,-8 60,-12 170,-12c183,0 178,-3 178,105c0,108 5,105 -178,104c-86,0 -163,-3 -169,-6zM710,875v-45h-120h-120v45v45h120h120z"></path><path d="M882,968c-16,-16 -16,-170 0,-186c17,-17 319,-17 336,0c7,7 12,43 12,93c0,50 -5,86 -12,93c-17,17 -319,17 -336,0zM1170,875v-45h-120h-120v45v45h120h120z"></path><path d="M1342,968c-7,-7 -12,-43 -12,-93c0,-50 5,-86 12,-93c17,-17 319,-17 336,0c7,7 12,43 12,93c0,50 -5,86 -12,93c-17,17 -319,17 -336,0zM1630,875v-45h-120h-120v45v45h120h120z"></path><path d="M1800,961c-5,-11 -10,-50 -10,-86c0,-108 -5,-105 178,-105c110,0 162,4 170,12c7,7 12,45 12,99c0,70 -3,88 -16,93c-9,3 -85,6 -169,6c-142,0 -155,-2 -165,-19zM2090,875v-45h-120h-120v45v45h120h120z"></path></g></g></g></g></g></svg>