<svg version="1.1" xmlns="http://www.w3.org/2000/svg" xmlns:xlink="http://www.w3.org/1999/xlink" width="256.000000pt" height="256.000000pt" viewBox="0,0,256,256"><g fill="#e7b3b3" fill-rule="nonzero" stroke="none" stroke-width="1" stroke-linecap="butt" stroke-linejoin="miter" stroke-miterlimit="10" stroke-dasharray="" stroke-dashoffset="0" font-family="none" font-weight="none" font-size="none" text-anchor="none" style="mix-blend-mode: normal"><g><g><g><g transform="translate(0,256) scale(0.1,-0.1)"><path d="M1200,2440v-120h80h80v120v120h-80h-80z"></path><path d="M786,2399c-38,-28 -55,-46 -52,-56c15,-37 129,-182 140,-176c54,32 115,86 109,96c-27,44 -126,177 -132,177c-4,0 -34,-18 -65,-41z"></path><path d="M1636,2349c-36,-51 -64,-95 -61,-98c2,-4 31,-26 63,-49l60,-42l61,84c34,47 64,91 67,99c4,10 -13,29 -50,56c-30,23 -59,41 -65,41c-5,0 -39,-41 -75,-91z"></path><path d="M1173,2105c-127,-34 -227,-114 -282,-223c-128,-254 8,-555 282,-626c51,-13 49,-14 -108,-17c-155,-4 -162,-5 -227,-36c-93,-44 -151,-100 -196,-191l-37,-76l-3,-443l-3,-443l25,-25l25,-25h631h631l25,25l25,25l-3,443l-3,443l-37,76c-45,91 -103,147 -196,191c-64,30 -74,32 -227,37c-119,4 -149,7 -117,13c210,37 372,276 335,492c-45,259 -295,426 -540,360z"></path><path d="M306,1904c-70,-22 -149,-103 -170,-174c-34,-113 -11,-206 68,-286c38,-37 68,-57 102,-68l49,-15h-74c-40,-1 -92,-6 -115,-13c-55,-16 -138,-99 -154,-154c-8,-28 -12,-129 -12,-313v-272l25,-24l24,-25h236h235v168c0,182 10,244 56,333c29,57 90,129 147,170l37,27l-44,39c-54,48 -100,63 -197,64h-74l49,15c70,22 149,103 170,174c34,113 11,206 -68,286c-80,79 -178,102 -290,68z"></path><path d="M2066,1904c-70,-22 -149,-103 -170,-174c-20,-68 -20,-112 0,-180c21,-71 100,-152 170,-174l49,-15h-74c-97,-1 -143,-16 -197,-64l-44,-39l37,-27c57,-41 118,-113 147,-170c46,-89 56,-151 56,-333v-168h235h236l24,25l25,24v272c0,181 -4,285 -12,311c-6,22 -31,62 -55,88c-53,59 -107,80 -212,81h-76l49,15c70,22 149,103 170,174c34,113 11,206 -68,286c-80,79 -178,102 -290,68z"></path></g></g></g></g></g></svg>